<?xml version="1.0" encoding="UTF-8"?><svg id="uuid-fa74474b-9067-4f01-90ef-34c0202c3050" xmlns="http://www.w3.org/2000/svg" width="200" height="200" viewBox="0 0 200 200"><circle cx="100" cy="100" r="95.04" style="stroke-width:0px;"/><path d="m15.39,102.03v-21.46h13.23v21.3c0,4.84,2.5,6.89,6,6.89s6.01-1.89,6.01-6.62v-21.57h13.23v21.18c0,13.29-7.73,18.52-19.35,18.52s-19.13-5.34-19.13-18.24Z" style="fill:#fff; stroke-width:0px;"/><path d="m57.1,100.14v-.11c0-11.62,9.06-20.3,20.68-20.3,8.56,0,14.35,4.17,17.63,10.12l-10.73,6.28c-1.45-2.78-3.5-4.73-7.06-4.73-4.39,0-7.28,3.84-7.28,8.51v.11c0,5.06,3,8.62,7.28,8.62,3.67,0,5.73-2,7.34-4.89l10.73,6.06c-3.28,5.78-8.73,10.51-18.4,10.51-10.79,0-20.18-8.12-20.18-20.18Z" style="fill:#fff; stroke-width:0px;"/><path d="m97.86,102.03v-21.46h13.23v21.3c0,4.84,2.5,6.89,6.01,6.89s6-1.89,6-6.62v-21.57h13.23v21.18c0,13.29-7.73,18.52-19.35,18.52s-19.13-5.34-19.13-18.24Z" style="fill:#fff; stroke-width:0px;"/><path d="m140.45,80.57h13.57l8.34,13.68,8.34-13.68h13.57v38.92h-12.96v-19.29l-8.95,13.84h-.22l-8.95-13.84v19.29h-12.73v-38.92Z" style="fill:#fff; stroke-width:0px;"/></svg>