<?xml version="1.0" encoding="UTF-8"?><svg id="uuid-bcc41fea-98c0-473e-ac8d-91bd4a210034" xmlns="http://www.w3.org/2000/svg" width="300" height="120" viewBox="0 0 300 120"><path d="m49.15,12.6c6.2,0,11.85.85,16.95,2.55,5.1,1.7,9.47,4.17,13.1,7.4,3.63,3.23,6.47,7.17,8.5,11.8,2.03,4.63,3.05,9.85,3.05,15.65,0,7-1.48,13.45-4.45,19.35-2.97,5.9-7.18,10.72-12.65,14.45,5.2,2.87,10.28,5.53,15.25,8,4.97,2.47,9.88,4.6,14.75,6.4,4.87,1.8,9.73,3.22,14.6,4.25,4.87,1.03,9.83,1.55,14.9,1.55,3.6,0,7.22-.29,10.85-.85,3.63-.57,7.42-1.45,11.35-2.65l1.9,4.2c-5.6,1.93-10.98,3.32-16.15,4.15-5.17.83-10.22,1.25-15.15,1.25-6,0-11.75-.57-17.25-1.7-5.5-1.13-10.77-2.7-15.8-4.7-5.03-2-9.87-4.33-14.5-7-4.63-2.67-9.05-5.53-13.25-8.6-2.4.87-4.92,1.53-7.55,2-2.63.47-5.45.7-8.45.7-7,0-13.05-1.1-18.15-3.3-5.1-2.2-9.33-5.13-12.7-8.8-3.37-3.67-5.85-7.87-7.45-12.6-1.6-4.73-2.4-9.67-2.4-14.8,0-4.87.83-9.62,2.5-14.25,1.67-4.63,4.17-8.77,7.5-12.4,3.33-3.63,7.55-6.55,12.65-8.75,5.1-2.2,11.12-3.3,18.05-3.3Zm-.95,3.8c-4.54,0-8.48.84-11.82,2.5-3.34,1.67-6.11,3.96-8.32,6.86-2.2,2.9-3.86,6.34-4.96,10.31-1.1,3.97-1.65,8.26-1.65,12.87,0,4.94.63,9.66,1.9,14.17,1.27,4.51,3.17,8.5,5.71,11.97s5.68,6.24,9.42,8.31c3.74,2.07,8.11,3.11,13.12,3.11s8.88-.88,12.22-2.65c3.34-1.77,6.06-4.17,8.16-7.21,2.1-3.04,3.62-6.58,4.56-10.61.93-4.04,1.4-8.36,1.4-12.97,0-5.61-.72-10.66-2.15-15.17-1.44-4.51-3.46-8.35-6.06-11.52-2.6-3.17-5.74-5.62-9.42-7.36-3.67-1.74-7.71-2.6-12.12-2.6Z" style="fill:#07478f; stroke-width:0px;"/><path d="m112.15,13.9v3.5c-4.2,0-6.3,1.07-6.3,3.2v36c0,3.73.23,7.33.7,10.8.47,3.47,1.45,6.55,2.95,9.25s3.65,4.87,6.45,6.5c2.8,1.63,6.5,2.45,11.1,2.45,7.27,0,12.82-2.52,16.65-7.55,3.83-5.03,5.75-12.88,5.75-23.55V22.3c0-3.27-3.17-4.9-9.5-4.9v-3.5h22.6v3.5c-5.27,0-7.9,1.63-7.9,4.9v29.6c0,6.33-.52,11.92-1.55,16.75-1.03,4.83-2.7,8.9-5,12.2-2.3,3.3-5.3,5.78-9,7.45-3.7,1.67-8.25,2.5-13.65,2.5-4.87,0-9.2-.65-13-1.95s-7.02-3.3-9.65-6c-2.63-2.7-4.65-6.15-6.05-10.35-1.4-4.2-2.1-9.23-2.1-15.1V20.6c0-2.13-2.53-3.2-7.6-3.2v-3.5h25.1Z" style="fill:#07478f; stroke-width:0px;"/><path d="m193.2,13.5c6.46,0,12.17.87,17.13,2.6,4.96,1.73,9.14,4.23,12.53,7.5,3.4,3.27,5.98,7.25,7.74,11.95,1.76,4.7,2.65,10.02,2.65,15.95s-.95,11.12-2.85,15.75c-1.9,4.63-4.59,8.57-8.09,11.8-3.5,3.23-7.72,5.72-12.68,7.45-4.96,1.73-10.5,2.6-16.63,2.6h-35.35v-3.5c4.53,0,6.8-1.77,6.8-5.3V23.2c0-3.87-2.4-5.8-7.2-5.8v-3.5c.93.13,1.88.25,2.85.35s1.98.15,3.05.15c4.66,0,9.59-.15,14.78-.45,5.19-.3,10.29-.45,15.28-.45Zm-10.45,4.8c-1.4,0-2.57.07-3.5.2-.93.13-1.67.43-2.2.9-.53.47-.9,1.15-1.1,2.05s-.3,2.15-.3,3.75v50.9c0,2,.17,3.58.5,4.75.33,1.17.9,2.05,1.7,2.65.8.6,1.83.97,3.1,1.1,1.27.13,2.87.2,4.8.2h8.3c9,0,15.65-2.68,19.95-8.05,4.3-5.37,6.45-13.78,6.45-25.25s-2.45-19.62-7.35-25.05c-4.9-5.43-11.88-8.15-20.95-8.15h-9.4Z" style="fill:#07478f; stroke-width:0px;"/><path d="m228.25,25.7l3.1-12.6c1.73.27,3.38.47,4.95.6,1.57.13,3.08.2,4.55.2h43.6c1.6,0,3.22-.07,4.85-.2,1.63-.13,3.32-.33,5.05-.6v13.4l-3,.5c-.8-5.27-3.97-7.9-9.5-7.9h-11.7c-1.67,0-2.5.63-2.5,1.9v60.2c0,2.93,2.67,4.4,8,4.4v3.5h-26.4v-3.5c4.73,0,7.1-1.47,7.1-4.4V21c0-1.53-.87-2.3-2.6-2.3h-13.6c-2.93,0-5.73,2.6-8.4,7.8l-3.5-.8Z" style="fill:#07478f; stroke-width:0px;"/></svg>